/* XPM */
static char *exit_xpm[] = {
/* width height num_colors chars_per_pixel */
"32 32 3 1",
/* colors */
"G c #00FF00", /* Green */
"W c #FFFFFF", /* White */
"X c #000000", /* Black (for outline, if desired) */
/* pixels */
"GGGGGGGGGGGGGGGGGGGGGGGGGGGGGGGG",
"GGGGGGGGGGGGGGGGGGGGGGGGGGGGGGGG",
"GGGGGGGGGGGGGGGGGGGGGGGGGGGGGGGG",
"GGGGGGGGGGGGGGGGGGGGGGGGGGGGGGGG",
"GGGGGGGGGGGGGGGGGGGGGGGGGGGGGGGG",
"GGGGGGGGGGGGGGGGGGGGGGGGGGGGGGGG",
"GGGGGGGGGGGGGGGGGGGGGGGGGGGGGGGG",
"GGGGGGGGGGGGGGGGGGGGGGGGGGGGGGGG",
"GGGGGGGGGGGGGGGGGGGGGGGGGGGGGGGG",
"GGGGGGGGGGGGGGGGGGGGGGGGGGGGGGGG",
"GGGGGGGGGGGGGGGGGGGGGGGGGGGGGGGG",
"GGGGGGGGGGGGGGGGGGGGGGGGGGGGGGGG",
"GGGGGGGGWWWWWWWWWWWWWWWWGGGGGGGG",
"GGGGGGGGWWWWWWWWWWWWWWWWGGGGGGGG",
"GGGGGGGGWWGGGGGGGGGGGGGGGGGGGGGG",
"GGGGGGGGWWGGGGGGGGGGGGGGGGGGGGGG",
"GGGGGGGGWWWWWWWWWWWWWWGGGGGGGGGG",
"GGGGGGGGWWWWWWWWWWWWWWGGGGGGGGGG",
"GGGGGGGGWWGGGGGGGGGGGGGGGGGGGGGG",
"GGGGGGGGWWGGGGGGGGGGGGGGGGGGGGGG",
"GGGGGGGGWWWWWWWWWWWWWWWWGGGGGGGG",
"GGGGGGGGWWWWWWWWWWWWWWWWGGGGGGGG",
"GGGGGGGGGGGGGGGGGGGGGGGGGGGGGGGG",
"GGGGGGGGGGGGGGGGGGGGGGGGGGGGGGGG",
"GGGGGGGGGGGGGGGGGGGGGGGGGGGGGGGG",
"GGGGGGGGGGGGGGGGGGGGGGGGGGGGGGGG",
"GGGGGGGGGGGGGGGGGGGGGGGGGGGGGGGG",
"GGGGGGGGGGGGGGGGGGGGGGGGGGGGGGGG",
"GGGGGGGGGGGGGGGGGGGGGGGGGGGGGGGG",
"GGGGGGGGGGGGGGGGGGGGGGGGGGGGGGGG",
"GGGGGGGGGGGGGGGGGGGGGGGGGGGGGGGG",
"GGGGGGGGGGGGGGGGGGGGGGGGGGGGGGGG",
};