/* XPM */
static char *player_xpm[] = {
/* width height num_colors chars_per_pixel */
"32 32 2 1",
/* colors */
"B c #000000", /* Black */
"W c #FFFFFF", /* White */
/* pixels */
"BBBBBBBBBBBBBBBBBBBBBBBBBBBBBBBB",
"BBBBBBBBBBBBBBBBBBBBBBBBBBBBBBBB",
"BBBBBBBBBBBBBBBBBBBBBBBBBBBBBBBB",
"BBBBBBBBBBBBBBBBBBBBBBBBBBBBBBBB",
"BBBBBBBBBBBBBBBBBBBBBBBBBBBBBBBB",
"BBBBBBBBBBBBBBBBBBBBBBBBBBBBBBBB",
"BBBBBBBBBBBBBBBBBBBBBBBBBBBBBBBB",
"BBBBBBBBBBBBBBBBBBBBBBBBBBBBBBBB",
"BBBBBBBBBBBBBBBBBBBBBBBBBBBBBBBB",
"BBBBBBBBBBBBBBBBBBBBBBBBBBBBBBBB",
"BBBBBBBBBBBBBBBBBBBBBBBBBBBBBBBB",
"BBBBBBBBBBBBBBBBBBBBBBBBBBBBBBBB",
"BBBBBBBBXXWWWWWWWWWWWWWWXXBBBBBB",
"BBBBBBBBXXWWWWWWWWWWWWWWXXBBBBBB",
"BBBBBBBBXXWWBBBBBBBBBBWWXXBBBBBB",
"BBBBBBBBXXWWBBBBBBBBBBWWXXBBBBBB",
"BBBBBBBBXXWWWWWWWWWWWWWWXXBBBBBB",
"BBBBBBBBXXWWWWWWWWWWWWWWXXBBBBBB",
"BBBBBBBBXXWWBBBBBBBBBBBBBBBBBBBB",
"BBBBBBBBXXWWBBBBBBBBBBBBBBBBBBBB",
"BBBBBBBBXXWWBBBBBBBBBBBBBBBBBBBB",
"BBBBBBBBXXWWBBBBBBBBBBBBBBBBBBBB",
"BBBBBBBBXXWWBBBBBBBBBBBBBBBBBBBB",
"BBBBBBBBXXWWBBBBBBBBBBBBBBBBBBBB",
"BBBBBBBBXXWWBBBBBBBBBBBBBBBBBBBB",
"BBBBBBBBXXWWBBBBBBBBBBBBBBBBBBBB",
"BBBBBBBBBBBBBBBBBBBBBBBBBBBBBBBB",
"BBBBBBBBBBBBBBBBBBBBBBBBBBBBBBBB",
"BBBBBBBBBBBBBBBBBBBBBBBBBBBBBBBB",
"BBBBBBBBBBBBBBBBBBBBBBBBBBBBBBBB",
"BBBBBBBBBBBBBBBBBBBBBBBBBBBBBBBB",
"BBBBBBBBBBBBBBBBBBBBBBBBBBBBBBBB"
};