/* XPM */
static char *player_xpm[] = {
/* width height num_colors chars_per_pixel */
"32 32 2 1",
/* colors */
"B c #000000", /* Black */
"W c #FFFFFF", /* White */
/* pixels */
"BBBBBBBBBBBBBBBBBBBBBBBBBBBBBBBB",
"BBBBBBBBBBBBBBBBBBBBBBBBBBBBBBBB",
"BBBBBBBBBBBBBBBBBBBBBBBBBBBBBBBB",
"BBBBBBBBBBBBBBBBBBBBBBBBBBBBBBBB",
"BBBBBBBBBBBBBBBBBBBBBBBBBBBBBBBB",
"BBBBBBBBBBBBBBBBBBBBBBBBBBBBBBBB",
"BBBBBBBBBBBBBBBBBBBBBBBBBBBBBBBB",
"BBBBBBBBBBBBBBBBBBBBBBBBBBBBBBBB",
"BBBBBBBBBBBBBBBBBBBBBBBBBBBBBBBB",
"BBBBBBBBBBBBBBBBBBBBBBBBBBBBBBBB",
"BBBBBBBBBBBBBBBBBBBBBBBBBBBBBBBB",
"BBBBBBBBBBBBBBBBBBBBBBBBBBBBBBBB",
"BBBBBBBBBBWWWWWWWWWWWWWWBBBBBBBB",
"BBBBBBBBBBWWWWWWWWWWWWWWBBBBBBBB",
"BBBBBBBBBBWWBBBBBBBBBBWWBBBBBBBB",
"BBBBBBBBBBWWBBBBBBBBBBWWBBBBBBBB",
"BBBBBBBBBBWWWWWWWWWWWWWWBBBBBBBB",
"BBBBBBBBBBWWWWWWWWWWWWWWBBBBBBBB",
"BBBBBBBBBBWWBBBBBBBBBBBBBBBBBBBB",
"BBBBBBBBBBWWBBBBBBBBBBBBBBBBBBBB",
"BBBBBBBBBBWWBBBBBBBBBBBBBBBBBBBB",
"BBBBBBBBBBWWBBBBBBBBBBBBBBBBBBBB",
"BBBBBBBBBBWWBBBBBBBBBBBBBBBBBBBB",
"BBBBBBBBBBWWBBBBBBBBBBBBBBBBBBBB",
"BBBBBBBBBBWWBBBBBBBBBBBBBBBBBBBB",
"BBBBBBBBBBWWBBBBBBBBBBBBBBBBBBBB",
"BBBBBBBBBBBBBBBBBBBBBBBBBBBBBBBB",
"BBBBBBBBBBBBBBBBBBBBBBBBBBBBBBBB",
"BBBBBBBBBBBBBBBBBBBBBBBBBBBBBBBB",
"BBBBBBBBBBBBBBBBBBBBBBBBBBBBBBBB",
"BBBBBBBBBBBBBBBBBBBBBBBBBBBBBBBB",
"BBBBBBBBBBBBBBBBBBBBBBBBBBBBBBBB"
};